<svg xmlns="http://www.w3.org/2000/svg" xmlns:xlink="http://www.w3.org/1999/xlink" version="1.1" x="0px" y="0px" viewBox="0 0 100 100" enable-background="new 0 0 100 100" xml:space="preserve"><path d="M49.6,12.1c-21.1,0-38.2,17.1-38.2,38.2s17.1,38.2,38.2,38.2c21.1,0,38.2-17.1,38.2-38.2S70.7,12.1,49.6,12.1z M49.6,84.9  c-19,0-34.5-15.5-34.5-34.5s15.5-34.5,34.5-34.5s34.5,15.5,34.5,34.5S68.7,84.9,49.6,84.9z M68.1,47.9L54.9,35.6  c-0.6-0.6-1.2-0.8-1.9-0.8c-0.6,0-2.5,0.3-2.5,3.5v7.1l-10.4-9.7c-0.6-0.6-1.2-0.8-1.9-0.8c-0.6,0-2.5,0.3-2.5,3.5v24  c0,3.3,2,3.5,2.6,3.5c0.7,0,1.4-0.3,2-0.9l10.3-9.6v7c0,3.3,2,3.5,2.6,3.5c0.7,0,1.4-0.3,2-0.9l12.6-11.7c2.1-1.9,1.6-4,0.6-5.2  C68.2,48,68.1,47.9,68.1,47.9z M50.2,50.6L39.3,60.7V40l11.1,10.3C50.4,50.4,50.3,50.5,50.2,50.6z M65.1,50.6L54.2,60.7V40  l11.1,10.3C65.3,50.4,65.2,50.5,65.1,50.6z"></path></svg>